<svg width="1440" height="870" viewBox="0 0 1440 870" fill="none" xmlns="http://www.w3.org/2000/svg">
<rect width="1440" height="870" fill="#F2F4F7"/>
<mask id="mask0" mask-type="alpha" maskUnits="userSpaceOnUse" x="0" y="0" width="1440" height="870">
<rect width="1440" height="870" fill="#F2F4F7"/>
</mask>
<g mask="url(#mask0)">
<path opacity="0.24" d="M1074.6 187.22C1129.78 250.706 1148.47 339.541 1142.65 437.162C1136.84 534.779 1106.53 641.117 1063.78 739.525C1021.02 837.931 965.848 928.379 910.335 994.216C882.578 1027.13 854.747 1053.89 828.354 1072.41C801.953 1090.93 777.038 1101.19 755.103 1101.19C711.147 1101.19 669.199 1075.71 630.979 1029.48C592.762 983.251 558.323 916.327 529.39 833.585C471.528 668.105 435.729 439.465 435.729 186.892C435.729 -65.6818 471.528 -278.839 529.385 -428.834C558.314 -503.833 592.748 -563.015 630.957 -603.44C669.164 -643.861 711.116 -665.5 755.103 -665.5C777.022 -665.5 794.997 -656.228 810.125 -639.456C825.268 -622.668 837.55 -598.371 848.036 -568.359C868.886 -508.68 882.568 -426.586 897.586 -336.481L897.849 -334.906C912.967 -244.206 929.481 -145.518 956.045 -53.5975C982.608 38.3203 1019.23 123.517 1074.6 187.22Z" stroke="url(#paint0_linear)"/>
<path opacity="0.24" d="M1037.97 186.965C1085.15 241.386 1101.13 317.543 1096.16 401.246C1091.19 484.943 1065.27 576.122 1028.7 660.503C992.143 744.884 944.957 822.438 897.483 878.888C873.746 907.114 849.948 930.051 827.381 945.927C804.807 961.81 783.513 970.593 764.775 970.593C727.211 970.593 691.354 948.764 658.673 909.128C625.994 869.495 596.543 812.115 571.799 741.166C522.315 599.274 491.699 403.218 491.699 186.638C491.699 -29.9435 522.315 -212.721 571.794 -341.335C596.534 -405.642 625.98 -456.383 658.651 -491.039C691.318 -525.692 727.18 -544.234 764.775 -544.234C783.497 -544.234 798.852 -536.295 811.779 -521.924C824.72 -507.539 835.222 -486.714 844.188 -460.981C862.018 -409.811 873.72 -339.419 886.565 -262.148L886.789 -260.803C899.718 -183.026 913.843 -98.3955 936.563 -19.5673C959.283 59.2582 990.611 132.328 1037.97 186.965Z" stroke="url(#paint1_linear)"/>
<path opacity="0.24" d="M1003.28 190.232C1044.63 237.938 1058.65 304.703 1054.29 378.095C1049.93 451.483 1027.2 531.432 995.142 605.424C963.082 679.414 921.706 747.418 880.08 796.916C859.267 821.665 838.401 841.775 818.618 855.693C798.827 869.617 780.166 877.311 763.752 877.311C730.838 877.311 699.409 858.185 670.756 823.434C642.106 788.686 616.282 738.376 594.586 676.163C551.195 551.742 524.347 379.824 524.347 189.904C524.347 -0.0156555 551.195 -160.29 594.58 -273.064C616.274 -329.453 642.092 -373.941 670.734 -404.324C699.374 -434.703 730.807 -450.952 763.752 -450.952C780.15 -450.952 793.599 -444 804.926 -431.409C816.266 -418.802 825.472 -400.549 833.334 -377.987C848.968 -333.12 859.228 -271.396 870.493 -203.631L870.688 -202.457C882.026 -134.253 894.413 -60.0346 914.339 9.09564C934.263 78.2232 961.738 142.309 1003.28 190.232Z" stroke="url(#paint2_linear)"/>
<path opacity="0.24" d="M961.536 194.643C995.25 233.284 1006.68 287.37 1003.13 346.842C999.572 406.31 981.032 471.1 954.881 531.065C928.731 591.029 894.981 646.14 861.03 686.251C844.054 706.307 827.038 722.6 810.908 733.875C794.769 745.156 779.565 751.381 766.2 751.381C739.386 751.381 713.771 735.9 690.405 707.745C667.042 679.593 645.981 638.827 628.283 588.408C592.889 487.574 570.988 348.241 570.988 194.314C570.988 40.3871 592.889 -89.5065 628.277 -180.899C645.972 -226.597 667.029 -262.643 690.383 -287.257C713.735 -311.868 739.356 -325.022 766.2 -325.022C779.548 -325.022 790.496 -319.401 799.722 -309.212C808.961 -299.008 816.466 -284.227 822.877 -265.945C835.629 -229.587 843.998 -179.564 853.189 -124.633L853.347 -123.688C862.596 -68.4083 872.702 -8.24704 888.959 47.7912C905.215 103.827 927.633 155.786 961.536 194.643Z" stroke="url(#paint3_linear)"/>
<path opacity="0.24" d="M916.493 199.543C941.475 228.113 949.956 268.11 947.319 312.117C944.682 356.119 930.933 404.065 911.534 448.445C892.137 492.824 867.103 533.609 841.923 563.291C829.332 578.132 816.715 590.184 804.76 598.523C792.796 606.867 781.541 611.458 771.663 611.458C751.822 611.458 732.85 600.03 715.527 579.203C698.207 558.38 682.587 528.218 669.459 490.903C643.205 416.277 626.958 313.149 626.958 199.214C626.958 85.2787 643.205 -10.8591 669.453 -78.4938C682.578 -112.312 698.193 -138.979 715.505 -157.184C732.814 -175.385 751.791 -185.1 771.663 -185.1C781.525 -185.1 789.615 -180.958 796.439 -173.438C803.277 -165.903 808.838 -154.98 813.592 -141.454C823.049 -114.55 829.257 -77.529 836.078 -36.8574L836.193 -36.1687C843.055 4.75163 850.554 49.2942 862.618 90.7856C874.682 132.274 891.321 170.758 916.493 199.543Z" stroke="url(#paint4_linear)"/>
<path opacity="0.24" d="M259.489 272.416C309.748 297.005 343.664 345.612 364.53 405.455C385.394 465.295 393.187 536.311 391.241 605.607C389.295 674.902 377.61 742.446 359.543 795.333C350.51 821.777 339.885 844.543 328.096 862.027C316.301 879.518 303.37 891.68 289.742 896.99C262.408 907.642 229.927 902.591 194.533 884.201C159.141 865.813 120.902 834.117 82.1165 791.604C4.54871 706.583 -75.1263 578.381 -138.503 427.149C-201.88 275.917 -233.055 139.603 -234.64 35.7623C-235.432 -16.1593 -228.827 -59.936 -215.171 -93.3942C-201.518 -126.848 -180.831 -149.955 -153.469 -160.617C-139.855 -165.922 -126.374 -164.741 -112.774 -158.389C-99.1563 -152.027 -85.4238 -140.481 -71.3656 -125.063C-43.407 -94.4012 -14.286 -48.5755 17.6909 1.74424L18.2417 2.61095C50.4229 53.2519 85.4853 108.347 125.115 156.95C164.743 205.552 208.967 247.698 259.489 272.416Z" stroke="url(#paint5_linear)"/>
<path opacity="0.24" d="M237.84 282.495C280.854 303.463 309.859 344.973 327.678 396.11C345.496 447.243 352.109 507.944 350.379 567.187C348.648 626.428 338.577 684.179 323.052 729.404C315.29 752.018 306.169 771.484 296.056 786.436C285.938 801.396 274.858 811.791 263.195 816.336C239.793 825.455 211.991 821.173 181.693 805.485C151.397 789.799 118.669 762.739 85.4805 726.428C19.1055 653.809 -49.0388 544.274 -103.2 415.034C-157.361 285.792 -183.944 169.283 -185.208 80.5144C-185.84 36.1291 -180.141 -1.2944 -168.416 -29.9003C-156.692 -58.5022 -138.958 -78.258 -115.527 -87.3886C-92.2664 -96.453 -69.3796 -83.443 -45.2956 -57.0792C-21.3733 -30.8924 3.53294 8.25865 30.8874 51.2582L31.3552 51.9935C58.8814 95.2626 88.8749 142.342 122.788 183.867C156.7 225.391 194.561 261.398 237.84 282.495Z" stroke="url(#paint6_linear)"/>
<path opacity="0.24" d="M213.89 292.068C251.431 310.484 276.794 346.859 292.42 391.656C308.045 436.449 313.912 489.605 312.498 541.474C311.085 593.342 302.393 643.891 288.924 683.463C282.189 703.249 274.266 720.276 265.471 733.348C256.672 746.427 247.031 755.501 236.881 759.456C216.504 767.397 192.263 763.613 165.814 749.835C139.367 736.058 110.776 712.32 81.7651 680.477C23.7461 616.794 -35.8787 520.783 -83.3372 407.535C-130.796 294.287 -154.174 192.232 -155.421 114.509C-156.044 75.6467 -151.133 42.8938 -140.954 17.8725C-130.776 -7.14489 -115.347 -24.4014 -94.9415 -32.353C-84.8065 -36.3024 -74.766 -35.4162 -64.6242 -30.6656C-54.4636 -25.9061 -44.2055 -17.268 -33.6929 -5.72302C-12.7837 17.2397 9.00635 51.5567 32.9429 89.2542L33.3494 89.8943C57.4337 127.824 83.6788 169.098 113.336 205.514C142.991 241.929 176.087 273.523 213.89 292.068Z" stroke="url(#paint7_linear)"/>
<path opacity="0.24" d="M191.544 303.82C222.288 318.636 242.966 348.097 255.614 384.46C268.261 420.819 272.857 464.021 271.475 506.21C270.094 548.398 262.737 589.54 251.503 621.772C245.886 637.888 239.305 651.762 232.027 662.421C224.744 673.088 216.794 680.492 208.457 683.74C191.706 690.268 171.827 687.295 150.161 676.199C128.497 665.104 105.109 645.916 81.405 620.134C34.0001 568.573 -14.5916 490.721 -53.1135 398.799C-91.6356 306.876 -110.413 223.968 -111.108 160.767C-111.455 129.166 -107.281 102.519 -98.8151 82.1406C-90.3508 61.7667 -77.6109 47.6894 -60.8324 41.1511C-44.2229 34.6787 -27.907 43.8263 -10.7063 62.5454C6.37524 81.1347 24.1347 108.957 43.6513 139.532L43.9783 140.044C63.6114 170.801 85.0099 204.275 109.234 233.786C133.457 263.294 160.535 288.875 191.544 303.82Z" stroke="url(#paint8_linear)"/>
<path opacity="0.24" d="M165.429 317.421C188.337 328.262 203.68 349.969 212.997 376.836C222.313 403.699 225.583 435.663 224.385 466.905C223.186 498.145 217.521 528.631 208.991 552.531C204.726 564.481 199.75 574.771 194.269 582.681C188.783 590.598 182.82 596.089 176.598 598.514C164.079 603.392 149.251 601.276 133.097 593.146C116.945 585.017 99.5278 570.903 81.8934 551.9C46.6274 513.898 10.5705 456.429 -17.8976 388.497C-46.3659 320.565 -60.09 259.245 -60.3623 212.46C-60.4984 189.066 -57.2712 169.333 -50.8636 154.23C-44.4579 139.131 -34.8873 128.686 -22.3406 123.797C-9.96169 118.973 2.15828 125.631 14.9527 139.426C27.6567 153.123 40.835 173.656 55.3279 196.239L55.5644 196.607C70.1381 219.315 86.0276 244.037 104.05 265.813C122.07 287.588 142.252 306.453 165.429 317.421Z" stroke="url(#paint9_linear)"/>
<path opacity="0.24" d="M298.301 1036.28C282.903 1015.35 282.919 993.956 292.622 973.951C302.343 953.911 321.795 935.257 345.278 919.947C368.753 904.643 396.208 892.711 421.87 886.092C447.552 879.469 471.356 878.189 487.572 884.091C520.061 895.916 541.62 928.446 550.128 971.639C558.633 1014.82 554.069 1068.57 534.387 1122.65C515.045 1175.79 524.162 1232.86 530.794 1274.36C530.937 1275.26 531.078 1276.14 531.218 1277.02C532.883 1287.46 534.34 1296.84 535.082 1304.87C535.825 1312.9 535.844 1319.53 534.66 1324.46C533.482 1329.37 531.135 1332.53 527.178 1333.8C523.164 1335.09 517.375 1334.48 509.223 1331.51C493.002 1325.61 475.578 1309.54 457.571 1287.33C439.58 1265.13 421.063 1236.88 402.641 1206.72C390.325 1186.56 378.049 1165.54 366.002 1144.91C342.031 1103.86 318.968 1064.37 298.301 1036.28Z" stroke="url(#paint10_linear)"/>
<path opacity="0.24" d="M1409.62 1099.52C1414.97 1125.53 1405.84 1145.25 1388.33 1159.46C1370.79 1173.69 1344.82 1182.41 1316.54 1186.28C1288.27 1190.15 1257.75 1189.18 1231.15 1184.09C1204.54 1179 1181.93 1169.8 1169.42 1157.29C1144.34 1132.22 1138.23 1092.82 1148.74 1049.3C1159.25 1005.78 1186.37 958.217 1227.64 916.951C1268.2 876.396 1284.05 819.818 1295.58 778.662C1295.83 777.777 1296.08 776.899 1296.32 776.029C1299.23 765.683 1301.87 756.396 1304.6 748.672C1307.34 740.94 1310.14 734.825 1313.34 730.794C1316.52 726.78 1320.04 724.892 1324.26 725.446C1328.53 726.008 1333.64 729.095 1339.93 735.386C1352.45 747.905 1361.75 770.321 1368.97 798.647C1376.19 826.952 1381.31 861.067 1385.54 896.902C1388.36 920.861 1390.78 945.592 1393.16 969.862C1397.88 1018.15 1402.43 1064.62 1409.62 1099.52Z" stroke="#1EE4D9"/>
<path opacity="0.24" d="M1442.19 1134.97C1449.12 1169.49 1436.84 1195.76 1413.47 1214.77C1390.07 1233.8 1355.54 1245.56 1317.99 1250.9C1280.46 1256.24 1239.98 1255.18 1204.72 1248.62C1169.45 1242.06 1139.51 1230.01 1122.97 1213.48C1089.85 1180.36 1082.03 1128.1 1096.29 1070.27C1110.55 1012.45 1146.89 949.157 1201.92 894.117C1255.97 840.075 1277.39 764.97 1292.99 710.304C1293.32 709.132 1293.65 707.97 1293.98 706.818C1297.91 693.078 1301.49 680.739 1305.17 670.471C1308.85 660.194 1312.62 652.042 1316.91 646.649C1321.18 641.274 1325.92 638.701 1331.57 639.415C1337.29 640.137 1344.07 644.225 1352.37 652.527C1368.92 669.069 1381.09 698.763 1390.47 736.278C1399.84 773.77 1406.39 818.982 1411.73 866.474C1415.3 898.233 1418.33 931.017 1421.31 963.185C1427.23 1027.18 1432.92 1088.75 1442.19 1134.97Z" stroke="#1EE4D9"/>
<path opacity="0.24" d="M1465.92 1154.54C1473.87 1194.45 1459.62 1224.86 1432.56 1246.89C1405.47 1268.93 1365.52 1282.58 1322.12 1288.82C1278.73 1295.07 1231.93 1293.91 1191.2 1286.39C1150.45 1278.87 1115.84 1265 1096.74 1245.9C1058.51 1207.66 1049.56 1147.25 1066.15 1080.38C1082.74 1013.52 1124.85 940.304 1188.56 876.592C1251.09 814.058 1275.98 727.244 1294.1 664.039C1294.49 662.686 1294.87 661.345 1295.26 660.014C1299.81 644.13 1303.97 629.861 1308.24 617.985C1312.52 606.101 1316.9 596.663 1321.87 590.413C1326.83 584.18 1332.33 581.178 1338.9 581.997C1345.53 582.824 1353.38 587.552 1362.96 597.135C1382.06 616.237 1396.09 650.549 1406.86 693.887C1417.62 737.202 1425.11 789.443 1431.19 844.316C1435.27 881.016 1438.71 918.899 1442.09 956.07C1448.82 1030.01 1455.29 1101.14 1465.92 1154.54Z" stroke="#1EE4D9"/>
<path opacity="0.24" d="M1506.84 1194.59C1516.66 1244.08 1498.96 1281.82 1465.38 1309.16C1431.77 1336.53 1382.23 1353.48 1328.44 1361.26C1274.65 1369.04 1216.66 1367.64 1166.19 1358.36C1115.69 1349.08 1072.8 1331.93 1049.13 1308.26C1001.74 1260.87 990.72 1185.98 1011.35 1103.08C1031.97 1020.2 1084.23 929.422 1163.24 850.405C1240.76 772.886 1271.68 665.322 1294.19 586.986C1294.67 585.312 1295.15 583.652 1295.62 582.006C1301.29 562.321 1306.45 544.633 1311.76 529.91C1317.07 515.179 1322.5 503.465 1328.69 495.7C1334.85 487.951 1341.71 484.195 1349.91 485.211C1358.16 486.235 1367.9 492.109 1379.77 503.978C1403.45 527.653 1420.8 570.182 1434.1 623.872C1447.39 677.539 1456.62 742.267 1464.11 810.254C1469.12 855.73 1473.36 902.668 1477.51 948.723C1485.77 1040.33 1493.72 1128.45 1506.84 1194.59Z" stroke="#1EE4D9"/>
<path opacity="0.24" d="M1538.12 1225.17C1549.43 1282.32 1528.97 1325.92 1490.17 1357.51C1451.34 1389.13 1394.14 1408.73 1332.03 1417.73C1269.93 1426.74 1202.98 1425.16 1144.71 1414.47C1086.42 1403.78 1036.9 1384 1009.57 1356.67C954.87 1301.97 942.183 1215.49 966.039 1119.78C989.892 1024.08 1050.26 919.247 1141.52 827.988C1231.03 738.48 1266.77 614.316 1292.79 523.875C1293.35 521.945 1293.9 520.03 1294.45 518.131C1301 495.405 1306.97 474.983 1313.1 457.982C1319.24 440.972 1325.52 427.438 1332.67 418.461C1339.81 409.5 1347.75 405.141 1357.25 406.314C1366.8 407.495 1378.06 414.286 1391.75 427.985C1419.09 455.318 1439.1 504.42 1454.43 566.392C1469.75 628.341 1480.37 703.058 1488.98 781.536C1494.75 834.032 1499.61 888.215 1504.38 941.377C1513.87 1047.12 1523 1148.82 1538.12 1225.17Z" stroke="#1EE4D9"/>
<path d="M33.0075 453.679C23.6055 450.545 21.4338 438.229 29.197 432.069L110.807 367.309C118.212 361.432 129.208 365.606 130.85 374.916L148.077 472.618C149.719 481.928 140.813 489.611 131.845 486.622L33.0075 453.679Z" fill="url(#paint11_linear)"/>
<path d="M2.73232 681.969C8.09772 672.059 22.318 672.059 27.6834 681.969L61.5628 744.541C66.6809 753.993 59.8365 765.482 49.0872 765.482H-18.6715C-29.4208 765.482 -36.2651 753.993 -31.147 744.541L2.73232 681.969Z" fill="#82ECE7"/>
<path opacity="0.53" d="M1427.96 651.326C1420.37 660.901 1405.17 658.223 1401.31 646.626L1372 558.683C1368.31 547.62 1377.79 536.636 1389.27 538.661L1476.2 553.989C1487.69 556.014 1492.83 569.577 1485.59 578.712L1427.96 651.326Z" fill="#1EE4D9"/>
<path d="M1322.28 189.692C1328.13 190.56 1330.69 197.577 1326.76 202.005L1304.53 227.071C1300.79 231.295 1293.89 229.981 1291.96 224.676L1281.04 194.697C1279.11 189.392 1283.55 183.951 1289.14 184.779L1322.28 189.692Z" fill="url(#paint12_linear)"/>
<path d="M1238.42 396.987C1240.46 395.732 1243.08 397.244 1243.01 399.64L1242.64 413.202C1242.58 415.487 1240.1 416.875 1238.12 415.732L1226.93 409.272C1224.95 408.129 1224.91 405.286 1226.86 404.089L1238.42 396.987Z" fill="url(#paint13_linear)"/>
<path opacity="0.53" d="M174.688 607.513C176.798 609.187 176.208 612.533 173.653 613.385L162.029 617.259C159.592 618.071 157.173 615.984 157.619 613.454L159.645 601.964C160.091 599.434 163.079 598.3 165.091 599.897L174.688 607.513Z" fill="#1EE4D9"/>
</g>
<defs>
<linearGradient id="paint0_linear" x1="786.147" y1="-768.349" x2="-203.492" y2="2257.25" gradientUnits="userSpaceOnUse">
<stop offset="0.122923" stop-color="#1EE4D9"/>
<stop offset="1" stop-color="#159DFF"/>
</linearGradient>
<linearGradient id="paint1_linear" x1="791.326" y1="-632.5" x2="-59.1141" y2="1960.69" gradientUnits="userSpaceOnUse">
<stop offset="0.122923" stop-color="#1EE4D9"/>
<stop offset="1" stop-color="#159DFF"/>
</linearGradient>
<linearGradient id="paint2_linear" x1="787.036" y1="-528.416" x2="41.265" y2="1745.61" gradientUnits="userSpaceOnUse">
<stop offset="0.122923" stop-color="#1EE4D9"/>
<stop offset="1" stop-color="#159DFF"/>
</linearGradient>
<linearGradient id="paint3_linear" x1="785.195" y1="-387.903" x2="183.877" y2="1457.56" gradientUnits="userSpaceOnUse">
<stop offset="0.122923" stop-color="#1EE4D9"/>
<stop offset="1" stop-color="#159DFF"/>
</linearGradient>
<linearGradient id="paint4_linear" x1="785.756" y1="-231.778" x2="341.437" y2="1134.94" gradientUnits="userSpaceOnUse">
<stop offset="0.122923" stop-color="#1EE4D9"/>
<stop offset="1" stop-color="#159DFF"/>
</linearGradient>
<linearGradient id="paint5_linear" x1="-160" y1="-229.906" x2="-23.2921" y2="1822.61" gradientUnits="userSpaceOnUse">
<stop offset="0.122923" stop-color="#1EE4D9"/>
<stop offset="1" stop-color="#159DFF"/>
</linearGradient>
<linearGradient id="paint6_linear" x1="-121.089" y1="-146.691" x2="-2.75646" y2="1607.84" gradientUnits="userSpaceOnUse">
<stop offset="0.122923" stop-color="#1EE4D9"/>
<stop offset="1" stop-color="#159DFF"/>
</linearGradient>
<linearGradient id="paint7_linear" x1="-99.9133" y1="-84.3466" x2="1.48318" y2="1452.51" gradientUnits="userSpaceOnUse">
<stop offset="0.122923" stop-color="#1EE4D9"/>
<stop offset="1" stop-color="#159DFF"/>
</linearGradient>
<linearGradient id="paint8_linear" x1="-64.7346" y1="-1.20856" x2="22.7777" y2="1247.75" gradientUnits="userSpaceOnUse">
<stop offset="0.122923" stop-color="#1EE4D9"/>
<stop offset="1" stop-color="#159DFF"/>
</linearGradient>
<linearGradient id="paint9_linear" x1="-25.1459" y1="92.3169" x2="43.4013" y2="1016.46" gradientUnits="userSpaceOnUse">
<stop offset="0.122923" stop-color="#1EE4D9"/>
<stop offset="1" stop-color="#159DFF"/>
</linearGradient>
<linearGradient id="paint10_linear" x1="359.382" y1="1303.02" x2="733.396" y2="624.071" gradientUnits="userSpaceOnUse">
<stop offset="0.122923" stop-color="#1EE4D9"/>
<stop offset="1" stop-color="#159DFF"/>
</linearGradient>
<linearGradient id="paint11_linear" x1="1.38176" y1="448.943" x2="277.4" y2="439.125" gradientUnits="userSpaceOnUse">
<stop offset="0.122923" stop-color="#9DEDEB"/>
<stop offset="1" stop-color="#9FD1FF"/>
</linearGradient>
<linearGradient id="paint12_linear" x1="1339.59" y1="190.013" x2="1230.63" y2="213.247" gradientUnits="userSpaceOnUse">
<stop offset="0.122923" stop-color="#9DEDEB"/>
<stop offset="1" stop-color="#9FD1FF"/>
</linearGradient>
<linearGradient id="paint13_linear" x1="1243.87" y1="392.58" x2="1216.12" y2="428.15" gradientUnits="userSpaceOnUse">
<stop offset="0.122923" stop-color="#9DEDEB"/>
<stop offset="1" stop-color="#9FD1FF"/>
</linearGradient>
</defs>
</svg>
