<svg width="21" height="18" viewBox="0 0 21 18" fill="none" xmlns="http://www.w3.org/2000/svg">
<path d="M6.72119 7.948C6.20396 7.79909 5.68674 7.72353 5.18362 7.72353C4.40668 7.72353 3.75839 7.90108 3.25571 8.1185C3.74033 6.34435 4.90452 3.28308 7.22365 2.93834C7.43842 2.9064 7.61443 2.7511 7.67302 2.54206L8.17989 0.729134C8.22263 0.575817 8.1973 0.411707 8.10984 0.278657C8.02239 0.145607 7.88185 0.0568327 7.72435 0.0352451C7.55319 0.0118952 7.37873 0 7.20581 0C4.4221 0 1.66527 2.90552 0.501961 7.06577C-0.180913 9.50649 -0.38115 13.176 1.30092 15.4856C2.24219 16.778 3.61543 17.4681 5.38253 17.5371C5.3898 17.5373 5.39685 17.5375 5.40412 17.5375C7.58447 17.5375 9.51789 16.0691 10.106 13.967C10.4574 12.7103 10.2986 11.3923 9.65843 10.255C9.02512 9.13047 7.98208 8.3108 6.72119 7.948Z" fill="#1EE4D9"/>
<path d="M20.3693 10.2552C19.736 9.13047 18.693 8.3108 17.4321 7.948C16.9148 7.79909 16.3976 7.72353 15.8947 7.72353C15.1178 7.72353 14.4693 7.90108 13.9666 8.1185C14.4512 6.34435 15.6154 3.28308 17.9347 2.93834C18.1495 2.9064 18.3253 2.7511 18.3841 2.54206L18.891 0.729134C18.9337 0.575818 18.9084 0.411707 18.8209 0.278657C18.7337 0.145607 18.5932 0.0568327 18.4354 0.0352451C18.2645 0.0118952 18.09 0 17.9169 0C15.1332 0 12.3764 2.90552 11.2128 7.06577C10.5302 9.50649 10.3299 13.176 12.0122 15.4861C12.9533 16.7782 14.3267 17.4686 16.0936 17.5373C16.1009 17.5375 16.1079 17.5378 16.1154 17.5378C18.2956 17.5378 20.2292 16.0694 20.8174 13.9672C21.1683 12.7105 21.0092 11.3923 20.3693 10.2552Z" fill="#1EE4D9"/>
</svg>
