<svg width="81" height="48" viewBox="0 0 81 48" fill="none" xmlns="http://www.w3.org/2000/svg">
<rect opacity="0.11" x="5.43365" y="5.43359" width="75.17" height="42.5662" rx="4" fill="white"/>
<rect x="1" y="1" width="73.17" height="40.5662" rx="3" fill="white" stroke="#161628" stroke-width="2"/>
<path d="M28.0177 27.1702C27.7975 27.1702 27.5757 27.0936 27.3948 26.9377L21.168 21.5721C20.9532 21.3868 20.8297 21.1161 20.8297 20.8303C20.8297 20.545 20.9538 20.2744 21.168 20.0891L27.3948 14.7235C27.7991 14.3746 28.4064 14.4241 28.7512 14.8333C29.0954 15.243 29.0471 15.8576 28.6422 16.2059L23.2762 20.8303L28.6422 25.4547C29.0471 25.8036 29.0954 26.4182 28.7512 26.8274C28.5606 27.054 28.2899 27.1702 28.0177 27.1702Z" fill="#161628"/>
<path d="M44.4341 27.1702C44.1618 27.1702 43.8912 27.054 43.7011 26.8274C43.3563 26.4182 43.4052 25.8036 43.8096 25.4547L49.1757 20.8303L43.8096 16.2059C43.4052 15.8576 43.3563 15.243 43.7011 14.8333C44.0453 14.4241 44.6532 14.3746 45.057 14.7235L51.284 20.0891C51.4988 20.2744 51.6223 20.545 51.6223 20.8303C51.6223 21.1161 51.4988 21.3868 51.284 21.5721L45.057 26.9377C44.876 27.0936 44.6542 27.1702 44.4341 27.1702Z" fill="#161628"/>
<path d="M34.411 31.6973C34.3492 31.6973 34.2869 31.6899 34.224 31.675C33.7375 31.558 33.4259 31.0125 33.5284 30.4573L37.1607 10.7775C37.2633 10.2223 37.7407 9.8667 38.2278 9.9837C38.7143 10.1007 39.0259 10.6456 38.9234 11.2013L35.2911 30.8812C35.2016 31.3653 34.8277 31.6973 34.411 31.6973Z" fill="#161628"/>
</svg>
