<svg width="69" height="55" viewBox="0 0 69 55" fill="none" xmlns="http://www.w3.org/2000/svg">
<rect opacity="0.11" y="5.32324" width="62.0963" height="49.6771" rx="4" fill="white"/>
<rect x="6.32289" y="1" width="60.9834" height="47.6771" rx="3" fill="white" stroke="#161628" stroke-width="2"/>
<path fill-rule="evenodd" clip-rule="evenodd" d="M42.2426 13.6053C43.8271 12.0208 46.3981 12.0227 47.9875 13.6121L48.481 14.1056C50.0693 15.6939 50.0709 18.2674 48.4878 19.8505L45.5736 22.7647C43.989 24.3493 41.418 24.3474 39.8286 22.758L39.3351 22.2644C37.7468 20.6762 37.7453 18.1026 39.3284 16.5195L42.2426 13.6053Z" stroke="black" stroke-width="2" stroke-linecap="round" stroke-linejoin="round"/>
<path fill-rule="evenodd" clip-rule="evenodd" d="M30.7125 25.1349C32.297 23.5503 34.868 23.5522 36.4574 25.1416L36.9509 25.6351C38.5392 27.2234 38.5408 29.797 36.9577 31.3801L34.0435 34.2943C32.4589 35.8788 29.8879 35.8769 28.2985 34.2875L27.805 33.794C26.2167 32.2057 26.2152 29.6321 27.7983 28.0491L30.7125 25.1349Z" stroke="black" stroke-width="2" stroke-linecap="round" stroke-linejoin="round"/>
<path d="M34.1103 27.983L42.1822 19.9111" stroke="black" stroke-width="2" stroke-linecap="round" stroke-linejoin="round"/>
</svg>
