<svg width="57" height="58" viewBox="0 0 57 58" fill="none" xmlns="http://www.w3.org/2000/svg">
<rect opacity="0.11" y="8.78882" width="43.0599" height="49.2113" rx="4" fill="white"/>
<path d="M10.1055 10.1064L32.9536 3.51562L54.923 9.22765V24.1668L52.726 36.4696L46.5746 45.2574L39.5444 49.6512L33.393 52.2876L26.8022 51.4088L16.6963 43.0604L12.3025 32.9545L10.1055 10.1064Z" fill="white"/>
<path d="M32.7431 51.8232L32.8446 51.854L32.9461 51.8232C45.3924 48.0518 54.0443 36.4247 54.0443 23.3818V9.62526V9.27819L53.6972 9.27527C46.352 9.21346 39.2366 7.1264 33.031 3.21974L32.8446 3.10236L32.6581 3.21974C26.4525 7.1264 19.3371 9.21346 11.9919 9.27527L11.6448 9.27819V9.62526V23.3818C11.6448 36.4247 20.2967 48.0518 32.7431 51.8232ZM32.5002 54.3669L32.4039 54.7035L32.5001 54.3669C18.7213 50.4284 9.1372 37.8244 9.1372 23.3818V8.0222C9.1372 7.32928 9.69871 6.76775 10.391 6.76775H11.6563C18.9739 6.76775 26.0605 4.62118 32.149 0.560605C32.5702 0.279798 33.1187 0.279762 33.54 0.56057C39.6285 4.62116 46.7152 6.76775 54.0328 6.76775H55.2981C55.9904 6.76775 56.5519 7.32928 56.5519 8.0222V23.3818C56.5519 37.8482 46.9422 50.4357 33.189 54.3669L33.2852 54.7035L33.189 54.3669C33.0765 54.3991 32.9605 54.4152 32.8446 54.4152C32.7286 54.4152 32.6127 54.3991 32.5002 54.3669Z" fill="black" stroke="white" stroke-width="0.7"/>
<path d="M24.8256 28.0646L31.0155 34.7285L43.5368 20.0354" stroke="black" stroke-width="2.82459" stroke-linecap="round" stroke-linejoin="round"/>
</svg>
