<svg width="183" height="44" viewBox="0 0 183 44" fill="none" xmlns="http://www.w3.org/2000/svg">
<g filter="url(#filter0_d)">
<path fill-rule="evenodd" clip-rule="evenodd" d="M139.9 27.5008V24.5008H131.7V8.60083H128.3V27.5008H139.9ZM142.1 14.0008V15.0008V27.6008H145.5V14.0008H142.1ZM151.4 14.0008H149.2V27.6008H152.6V21.4008C152.6 20.8008 152.7 20.1008 152.8 19.6008C153.3 18.0008 154.6 16.8008 156.5 16.8008C158.2 16.8008 158.7 17.9008 158.7 19.6008V27.6008H162V18.9008C162 15.3008 160.3 13.7008 157.3 13.7008C154.6 13.7008 153.1 15.4008 152.5 16.5008H152.4V14.0008H151.4ZM168.9 27.5008V21.6008H170.7L174.3 27.5008H178.2L173.4 20.0008V19.9008L177.7 13.8008H173.9L170.6 18.6008H168.9V8.60083H165.5V27.5008H168.9Z" fill="url(#paint0_linear)"/>
<path d="M143.7 12.2007C144.86 12.2007 145.8 11.2605 145.8 10.1007C145.8 8.94093 144.86 8.00073 143.7 8.00073C142.54 8.00073 141.6 8.94093 141.6 10.1007C141.6 11.2605 142.54 12.2007 143.7 12.2007Z" fill="#1EE4D9"/>
<path d="M54.1002 8.30054H57.9002L62.0002 20.8005C62.4002 21.9005 62.7002 23.6005 62.7002 23.6005H62.8002C62.8002 23.6005 63.2002 21.9005 63.5002 20.8005L67.8002 8.30054H71.5002L64.6002 27.5005H61.0002L54.1002 8.30054Z" fill="#002140"/>
<path fill-rule="evenodd" clip-rule="evenodd" d="M102.7 27.8012C106.1 27.8012 108.1 25.9012 108.1 25.9012L106.8 23.5012C106.8 23.5012 105.1 25.0012 102.9 25.0012C100.9 25.0012 99.0003 23.8012 98.8003 21.4012H108.2C108.2 21.4012 108.3 20.5012 108.3 20.1012C108.3 16.5012 106.2 13.7012 102.3 13.7012C98.3003 13.7012 95.4003 16.6012 95.4003 20.8012C95.4003 24.6012 98.2003 27.8012 102.7 27.8012ZM104.9 19.1012H99.0003C99.3003 17.3012 100.5 16.3012 102.3 16.3012C103.7 16.2012 104.8 17.2012 104.9 19.1012Z" fill="#002140"/>
<path fill-rule="evenodd" clip-rule="evenodd" d="M73.6003 14.0007V15.0007V27.6007H77.0003V14.0007H73.6003Z" fill="#002140"/>
<path d="M75.3 12.2007C76.4598 12.2007 77.4 11.2605 77.4 10.1007C77.4 8.94093 76.4598 8.00073 75.3 8.00073C74.1402 8.00073 73.2 8.94093 73.2 10.1007C73.2 11.2605 74.1402 12.2007 75.3 12.2007Z" fill="#002140"/>
<path d="M85.8004 13.4004C87.3004 13.4004 88.9004 14.0004 89.8004 15.2004H89.9004C89.9004 15.2004 89.8004 14.8004 89.8004 14.4004V8.40039H93.2004V27.6004H90.0004V26.4004C90.0004 25.9004 90.1004 25.5004 90.1004 25.5004H90.0004C89.2004 26.9004 87.6004 27.9004 85.7004 27.9004C82.0004 27.9004 79.6004 25.0004 79.6004 20.7004C79.5004 16.3004 82.1004 13.4004 85.8004 13.4004ZM86.4004 25.0004C88.2004 25.0004 89.9004 23.7004 89.9004 20.7004C89.9004 18.6004 88.8004 16.5004 86.5004 16.5004C84.6004 16.5004 83.0004 18.0004 83.0004 20.8004C83.0004 23.3004 84.4004 25.0004 86.4004 25.0004Z" fill="#002140"/>
<path d="M117.5 13.4006C121.7 13.4006 125.1 16.4006 125.1 20.6006C125.1 24.8006 121.7 27.8006 117.5 27.8006C113.3 27.8006 109.9 24.8006 109.9 20.6006C109.9 16.4006 113.3 13.4006 117.5 13.4006ZM117.5 24.9006C119.7 24.9006 121.6 23.2006 121.6 20.6006C121.6 18.1006 119.7 16.3006 117.5 16.3006C115.3 16.3006 113.4 18.1006 113.4 20.6006C113.4 23.2006 115.2 24.9006 117.5 24.9006Z" fill="#002140"/>
<path fill-rule="evenodd" clip-rule="evenodd" d="M36.4202 25.1477L23.3646 32.6237L20.8118 34.0824L20.593 34.2283C16.3992 36.6716 15.8886 36.3434 12.6794 34.4835L12.57 34.4471L11.7312 33.9365L8.74086 32.2225L8.26677 31.9672L7.71975 31.712C4.54702 29.8156 4 29.5238 4 24.6371V23.2878V21.4644V8.86344C4 3.94024 4.54702 3.68496 7.71975 1.82509L10.0902 0.475768C11.3666 -0.290063 12.3147 0.475768 12.3147 1.46041V24.2724V29.305L29.6736 19.4951L36.1649 15.7024L38.0612 14.6084C38.8635 14.1343 39.9941 14.5719 39.9941 16.0671V18.7657C39.9941 22.2667 39.9941 22.9596 36.4202 25.0747V25.1477Z" fill="url(#paint1_linear)"/>
<mask id="mask0" mask-type="alpha" maskUnits="userSpaceOnUse" x="4" y="0" width="37" height="36">
<path d="M12.3164 34.33V34.3205L12.5717 34.476L12.6812 34.5125L12.7442 34.5491C15.8978 36.3782 16.4291 36.6864 20.5961 34.257L20.8149 34.111L36.4258 25.1686V25.0956C40.0003 22.9786 40.0003 22.2851 40.0003 18.7811V16.0801C40.0003 14.5836 38.8696 14.1457 38.0672 14.6201L36.1705 15.7151L29.6781 19.5111L13.8513 28.4615C13.1656 28.8493 12.3164 28.3539 12.3164 27.5662V1.29771C12.3164 0.31222 11.3681 -0.454275 10.0915 0.31222L7.72067 1.66271C7.67917 1.68706 7.63812 1.71113 7.59751 1.73494C4.5332 3.53168 4.00031 3.84414 4.00031 8.70717V24.6576C4.00031 25.5681 4.01927 26.3192 4.0706 26.951C4.18797 28.3955 4.47458 29.216 5.09075 29.8912C5.64237 30.4956 6.45812 30.9835 7.65305 31.6981L7.72067 31.7385L8.26778 31.994L8.74195 32.2495L11.7328 33.965L12.3164 34.33Z" fill="url(#paint2_linear)"/>
</mask>
<g mask="url(#mask0)">
<path fill-rule="evenodd" clip-rule="evenodd" d="M16.7295 36.0089C15.4894 36.1549 14.5046 35.5709 12.6808 34.5489L12.5714 34.5124L12.3161 34.3299V25.7837L16.7295 26.7745V36.0089Z" fill="url(#paint3_linear)"/>
</g>
<path fill-rule="evenodd" clip-rule="evenodd" d="M32.0451 12.548L25.303 16.4655L18.4159 20.4193C17.5459 20.8546 16.8572 20.4193 16.8572 19.3311V11.5686V3.6248C16.8935 2.64542 17.6547 2.28269 18.5246 2.82679L25.303 6.67176L32.1538 10.6255C33.0238 11.2059 32.9513 12.0039 32.0451 12.548Z" fill="url(#paint4_linear)"/>
</g>
<defs>
<filter id="filter0_d" x="0" y="0.163818" width="182.2" height="43.8362" filterUnits="userSpaceOnUse" color-interpolation-filters="sRGB">
<feFlood flood-opacity="0" result="BackgroundImageFix"/>
<feColorMatrix in="SourceAlpha" type="matrix" values="0 0 0 0 0 0 0 0 0 0 0 0 0 0 0 0 0 0 127 0"/>
<feOffset dy="4"/>
<feGaussianBlur stdDeviation="2"/>
<feColorMatrix type="matrix" values="0 0 0 0 0 0 0 0 0 0 0 0 0 0 0 0 0 0 0.25 0"/>
<feBlend mode="normal" in2="BackgroundImageFix" result="effect1_dropShadow"/>
<feBlend mode="normal" in="SourceGraphic" in2="effect1_dropShadow" result="shape"/>
</filter>
<linearGradient id="paint0_linear" x1="153" y1="16.0007" x2="150.808" y2="59.8912" gradientUnits="userSpaceOnUse">
<stop stop-color="#1EE4D9"/>
<stop offset="1" stop-color="#159DFF"/>
</linearGradient>
<linearGradient id="paint1_linear" x1="22" y1="11.501" x2="-3.97324" y2="49.6116" gradientUnits="userSpaceOnUse">
<stop offset="0.122923" stop-color="#1EE4D9"/>
<stop offset="1" stop-color="#159DFF"/>
</linearGradient>
<linearGradient id="paint2_linear" x1="-15.5426" y1="52.7513" x2="26.1538" y2="-6.6629" gradientUnits="userSpaceOnUse">
<stop stop-color="#00ADFE"/>
<stop offset="1" stop-color="#1EE4D9"/>
</linearGradient>
<linearGradient id="paint3_linear" x1="17.4999" y1="30" x2="12.7566" y2="30.6478" gradientUnits="userSpaceOnUse">
<stop stop-color="#1BD2E3"/>
<stop offset="1" stop-color="#11ADDB"/>
</linearGradient>
<linearGradient id="paint4_linear" x1="27.5001" y1="3.00025" x2="2.2839" y2="34.7552" gradientUnits="userSpaceOnUse">
<stop offset="0.122923" stop-color="#1EE4D9"/>
<stop offset="1" stop-color="#159DFF"/>
</linearGradient>
</defs>
</svg>
