<svg width="120" height="25" viewBox="0 0 120 25" fill="none" xmlns="http://www.w3.org/2000/svg">
<path fill-rule="evenodd" clip-rule="evenodd" d="M93.6159 18.9452V16.8786H87.9672V5.92554H85.625V18.9452H93.6159ZM95.1315 9.64545V10.3343V19.0141H97.4736V9.64545H95.1315ZM101.538 9.64545H100.022V19.0141H102.365V14.7431C102.365 14.3298 102.434 13.8476 102.502 13.5031C102.847 12.4009 103.742 11.5743 105.051 11.5743C106.222 11.5743 106.567 12.3321 106.567 13.5031V19.0141H108.84V13.0209C108.84 10.541 107.669 9.43879 105.602 9.43879C103.742 9.43879 102.709 10.6099 102.296 11.3676H102.227V9.64545H101.538ZM113.593 18.9452V14.8809H114.833L117.313 18.9452H120L116.693 13.7787V13.7098L119.655 9.50768H117.038L114.764 12.8143H113.593V5.92554H111.251V18.9452H113.593Z" fill="url(#paint0_linear)"/>
<path d="M96.2357 8.40499C97.0346 8.40499 97.6823 7.75731 97.6823 6.95835C97.6823 6.1594 97.0346 5.51172 96.2357 5.51172C95.4367 5.51172 94.7891 6.1594 94.7891 6.95835C94.7891 7.75731 95.4367 8.40499 96.2357 8.40499Z" fill="#1EE4D9"/>
<path d="M34.5127 5.71802H37.1304L39.9548 14.3289C40.2303 15.0867 40.437 16.2578 40.437 16.2578H40.5059C40.5059 16.2578 40.7814 15.0867 40.9881 14.3289L43.9503 5.71802H46.4991L41.7459 18.9444H39.2659L34.5127 5.71802Z" fill="#002140"/>
<path fill-rule="evenodd" clip-rule="evenodd" d="M67.9917 19.1518C70.3338 19.1518 71.7116 17.843 71.7116 17.843L70.816 16.1897C70.816 16.1897 69.645 17.223 68.1294 17.223C66.7517 17.223 65.4428 16.3963 65.3051 14.743H71.7805C71.7805 14.743 71.8494 14.1231 71.8494 13.8475C71.8494 11.3676 70.4027 9.43872 67.7161 9.43872C64.9606 9.43872 62.9629 11.4365 62.9629 14.3297C62.9629 16.9474 64.8917 19.1518 67.9917 19.1518ZM69.5072 13.1586H65.4428C65.6495 11.9187 66.4761 11.2298 67.7161 11.2298C68.6805 11.1609 69.4383 11.8498 69.5072 13.1586Z" fill="#002140"/>
<path fill-rule="evenodd" clip-rule="evenodd" d="M47.9443 9.64502V10.3339V19.0137H50.2865V9.64502H47.9443Z" fill="#002140"/>
<path d="M49.1156 8.40499C49.9145 8.40499 50.5622 7.75731 50.5622 6.95835C50.5622 6.1594 49.9145 5.51172 49.1156 5.51172C48.3166 5.51172 47.6689 6.1594 47.6689 6.95835C47.6689 7.75731 48.3166 8.40499 49.1156 8.40499Z" fill="#002140"/>
<path d="M56.3511 9.23123C57.3844 9.23123 58.4866 9.64456 59.1066 10.4712H59.1754C59.1754 10.4712 59.1066 10.1957 59.1066 9.92011V5.78687H61.4487V19.0132H59.2443V18.1866C59.2443 17.8422 59.3132 17.5666 59.3132 17.5666H59.2443C58.6932 18.531 57.591 19.2199 56.2822 19.2199C53.7333 19.2199 52.08 17.2222 52.08 14.26C52.0112 11.229 53.8022 9.23123 56.3511 9.23123ZM56.7644 17.2222C58.0044 17.2222 59.1754 16.3266 59.1754 14.26C59.1754 12.8134 58.4177 11.3667 56.8333 11.3667C55.5244 11.3667 54.4222 12.4001 54.4222 14.3289C54.4222 16.0511 55.3866 17.2222 56.7644 17.2222Z" fill="#002140"/>
<path d="M78.1886 9.23096C81.0818 9.23096 83.424 11.2976 83.424 14.1908C83.424 17.0841 81.0818 19.1507 78.1886 19.1507C75.2953 19.1507 72.9531 17.0841 72.9531 14.1908C72.9531 11.2976 75.2953 9.23096 78.1886 9.23096ZM78.1886 17.153C79.7041 17.153 81.0129 15.9819 81.0129 14.1908C81.0129 12.4687 79.7041 11.2287 78.1886 11.2287C76.673 11.2287 75.3642 12.4687 75.3642 14.1908C75.3642 15.9819 76.6042 17.153 78.1886 17.153Z" fill="#002140"/>
<path fill-rule="evenodd" clip-rule="evenodd" d="M22.3334 17.3216L13.3397 22.4716L11.5812 23.4764L11.4305 23.5769C8.54146 25.2601 8.18975 25.034 5.97902 23.7528L5.90365 23.7277L5.32585 23.376L3.26585 22.1952L2.93927 22.0194L2.56244 21.8435C0.376829 20.5372 0 20.3362 0 16.9698V16.0403V14.7842V6.10378C0 2.71232 0.376829 2.53646 2.56244 1.25525L4.19536 0.325733C5.07463 -0.201827 5.7278 0.325734 5.7278 1.00403V16.7186V20.1855L17.6858 13.4277L22.1575 10.815L23.4639 10.0613C24.0166 9.73473 24.7953 10.0362 24.7953 11.0662V12.9252C24.7953 15.3369 24.7953 15.8142 22.3334 17.2713V17.3216Z" fill="url(#paint1_linear)"/>
<mask id="mask0" mask-type="alpha" maskUnits="userSpaceOnUse" x="0" y="0" width="25" height="25">
<path d="M5.72875 23.649V23.6425L5.90463 23.7496L5.98001 23.7748L6.02342 23.7999C8.19584 25.06 8.56188 25.2723 11.4324 23.5988L11.5831 23.4982L22.3371 17.338V17.2877C24.7994 15.8293 24.7994 15.3516 24.7994 12.9378V11.0772C24.7994 10.0463 24.0205 9.74456 23.4678 10.0714L22.1612 10.8257L17.6888 13.4407L6.78609 19.6064C6.31375 19.8735 5.72875 19.5323 5.72875 18.9896V0.89396C5.72875 0.21508 5.07547 -0.312938 4.19606 0.21508L2.56286 1.1454C2.53427 1.16217 2.50599 1.17875 2.47802 1.19515C0.367097 2.43288 0 2.64813 0 5.99813V16.9859C0 17.6132 0.0130623 18.1306 0.048424 18.5658C0.129278 19.5609 0.326716 20.1262 0.751178 20.5912C1.13118 21.0076 1.69312 21.3437 2.51628 21.836L2.56286 21.8638L2.93975 22.0398L3.26639 22.2158L5.32673 23.3976L5.72875 23.649Z" fill="url(#paint2_linear)"/>
</mask>
<g mask="url(#mask0)">
<path fill-rule="evenodd" clip-rule="evenodd" d="M8.76877 24.8054C7.91449 24.9059 7.23608 24.5036 5.97978 23.7996L5.9044 23.7745L5.72852 23.6487V17.7615L8.76877 18.444V24.8054Z" fill="url(#paint3_linear)"/>
</g>
<path fill-rule="evenodd" clip-rule="evenodd" d="M19.3199 8.64439L14.6755 11.3431L9.93114 14.0667C9.33185 14.3666 8.85742 14.0667 8.85742 13.3171V7.96972V2.49742C8.88239 1.82275 9.40676 1.57287 10.006 1.94769L14.6755 4.59638L19.3948 7.32004C19.9941 7.71984 19.9442 8.26957 19.3199 8.64439Z" fill="url(#paint4_linear)"/>
<defs>
<linearGradient id="paint0_linear" x1="102.64" y1="11.0231" x2="101.13" y2="41.2581" gradientUnits="userSpaceOnUse">
<stop stop-color="#1EE4D9"/>
<stop offset="1" stop-color="#159DFF"/>
</linearGradient>
<linearGradient id="paint1_linear" x1="12.3997" y1="7.9207" x2="-5.49255" y2="34.1741" gradientUnits="userSpaceOnUse">
<stop offset="0.122923" stop-color="#1EE4D9"/>
<stop offset="1" stop-color="#159DFF"/>
</linearGradient>
<linearGradient id="paint2_linear" x1="-13.4626" y1="36.3389" x2="15.2609" y2="-4.5899" gradientUnits="userSpaceOnUse">
<stop stop-color="#00ADFE"/>
<stop offset="1" stop-color="#1EE4D9"/>
</linearGradient>
<linearGradient id="paint3_linear" x1="9.29952" y1="20.666" x2="6.03199" y2="21.1122" gradientUnits="userSpaceOnUse">
<stop stop-color="#1BD2E3"/>
<stop offset="1" stop-color="#11ADDB"/>
</linearGradient>
<linearGradient id="paint4_linear" x1="16.189" y1="2.06718" x2="-1.18176" y2="23.9423" gradientUnits="userSpaceOnUse">
<stop offset="0.122923" stop-color="#1EE4D9"/>
<stop offset="1" stop-color="#159DFF"/>
</linearGradient>
</defs>
</svg>
