<svg width="768" height="632" viewBox="0 0 768 632" fill="none" xmlns="http://www.w3.org/2000/svg">
<rect width="768" height="632" fill="#F2F4F7"/>
<mask id="mask0" mask-type="alpha" maskUnits="userSpaceOnUse" x="0" y="0" width="768" height="632">
<rect width="768" height="632" fill="#F2F4F7"/>
</mask>
<g mask="url(#mask0)">
<path opacity="0.5" d="M75.9867 51.1258C79.1086 51.5886 80.4708 55.3311 78.3768 57.6924L66.5214 71.0611C64.5239 73.3135 60.8446 72.6128 59.8149 69.7838L53.9953 53.7946C52.9656 50.9656 55.3337 48.0637 58.3117 48.5053L75.9867 51.1258Z" fill="#C8DBF7"/>
<path opacity="0.5" d="M287.731 613.414C290.853 613.877 292.215 617.619 290.121 619.981L266.937 646.124C264.939 648.377 261.26 647.676 260.23 644.847L248.85 613.579C247.82 610.75 250.188 607.848 253.166 608.29L287.731 613.414Z" fill="#C8DBF7"/>
<path opacity="0.74" d="M697.048 120.083C698.137 119.414 699.534 120.22 699.499 121.498L699.301 128.731C699.268 129.95 697.944 130.69 696.888 130.081L690.921 126.635C689.865 126.026 689.844 124.509 690.883 123.871L697.048 120.083Z" fill="#C8DBF7"/>
<path opacity="0.74" d="M63.9795 469.238C65.0685 468.569 66.4652 469.375 66.4303 470.653L66.2325 477.886C66.1991 479.105 64.8753 479.845 63.8195 479.236L57.852 475.79C56.7962 475.181 56.7754 473.664 57.8142 473.026L63.9795 469.238Z" fill="#C8DBF7"/>
</g>
</svg>
